<?xml version="1.0" encoding="UTF-8" standalone="no"?>
<svg
   width="450"
   height="450"
   preserveAspectRatio="none"
   viewBox="29.488 22.578 337.5 337.50026"
   version="1.1"
   id="svg66"
   sodipodi:docname="logowhite.svg"
   inkscape:version="1.4 (86a8ad7, 2024-10-11)"
   xmlns:inkscape="http://www.inkscape.org/namespaces/inkscape"
   xmlns:sodipodi="http://sodipodi.sourceforge.net/DTD/sodipodi-0.dtd"
   xmlns="http://www.w3.org/2000/svg"
   xmlns:svg="http://www.w3.org/2000/svg">
  <sodipodi:namedview
     id="namedview66"
     pagecolor="#ffffff"
     bordercolor="#000000"
     borderopacity="0.25"
     inkscape:showpageshadow="2"
     inkscape:pageopacity="0.0"
     inkscape:pagecheckerboard="true"
     inkscape:deskcolor="#d1d1d1"
     inkscape:zoom="2.7016828"
     inkscape:cx="224.67478"
     inkscape:cy="215.9765"
     inkscape:window-width="2560"
     inkscape:window-height="1369"
     inkscape:window-x="-8"
     inkscape:window-y="-8"
     inkscape:window-maximized="1"
     inkscape:current-layer="svg66" />
  <defs
     id="defs32" />
  <path
     id="path100"
     style="baseline-shift:baseline;display:inline;overflow:visible;vector-effect:none;fill:#ffffff;enable-background:accumulate;stop-color:#000000;stop-opacity:1"
     d="m 198.16702,29.34556 c -8.242,0 -14.91797,6.684369 -14.91797,14.922369 0,0.156157 0.007,0.310817 0.0117,0.46582 L 66.084939,97.261601 C 63.334726,94.550557 59.560485,92.875858 55.394505,92.875858 v 0.0015 c -8.418,0 -15.238775,6.824774 -15.238775,15.238782 0,6.22952 3.740257,11.58163 9.098148,13.94239 v 138.50103 c -5.357769,2.36201 -9.098148,7.71579 -9.098148,13.94531 0,8.41 6.819775,15.23145 15.238775,15.23145 3.346622,0 6.439616,-1.0816 8.953129,-2.91064 l 119.050826,53.37014 c 1.03051,7.40859 7.38947,13.11475 15.08497,13.11475 7.80014,0 14.22755,-5.86242 15.12451,-13.41798 l 118.46782,-53.10646 c 2.52417,1.85346 5.63915,2.95019 9.01026,2.95019 8.414,0 15.23438,-6.82145 15.23438,-15.23145 0,-6.28653 -3.80842,-11.68311 -9.24317,-14.01123 v -138.3692 c 5.43475,-2.32687 9.24317,-7.72177 9.24317,-14.0083 0,-8.414008 -6.82038,-15.240246 -15.23438,-15.240246 v 0.0015 c -4.18875,0 -7.98225,1.692805 -10.73731,4.42969 L 213.07035,44.732285 c 0.005,-0.154521 0.0117,-0.30869 0.0117,-0.464356 0,-8.238 -6.67705,-14.922369 -14.91505,-14.922369 z m 0,7.691897 c 4.00517,1.2e-5 7.25178,3.247272 7.25098,7.252445 5.4e-4,4.004829 -3.24615,7.25152 -7.25098,7.250979 -4.008,0 -7.25684,-3.246979 -7.25684,-7.250979 0.001,-4.006546 3.25029,-7.25346 7.25684,-7.252445 z m 10.60987,17.708503 117.09819,52.48977 c -0.0167,0.29165 -0.0278,0.58456 -0.0278,0.88037 0,0.5486 0.0313,1.08945 0.0879,1.62305 l -116.04204,52.01808 c -2.73075,-3.47379 -6.96591,-5.7085 -11.72608,-5.7085 -4.76133,0 -8.99662,2.23322 -11.72754,5.70557 L 70.533671,109.80067 c 0.06093,-0.55353 0.09522,-1.11479 0.09522,-1.68457 0,-0.31672 -0.01318,-0.62996 -0.03223,-0.9419 L 187.55569,54.747425 c 2.70405,2.736292 6.45823,4.434084 10.61133,4.434084 4.15183,0 7.90593,-1.698391 10.60987,-4.435549 z m -10.61133,8.23682 0.006,0.499512 c -0.0428,-0.24625 -0.0847,-0.492223 -0.0952,-0.490723 0,0 -0.62873,0.03214 -0.96973,0.09814 -0.35215,0.0735 -0.69648,0.180431 -1.02832,0.319337 -0.324,0.136 -0.6495,0.313906 -0.9375,0.503906 -0.295,0.2 -0.58063,0.439082 -0.82763,0.684082 -0.248,0.251 -0.48183,0.543567 -0.67383,0.830567 -0.192,0.293 -0.36791,0.622684 -0.50391,0.950684 -0.129,0.322 -0.23815,0.682856 -0.30615,1.026856 -0.0675,0.351915 -0.10091,0.709536 -0.0996,1.067871 0.003,0.357801 0.0369,0.714666 0.10254,1.066407 0.0746,0.35229 0.18004,0.69736 0.31494,1.03125 0.14131,0.332167 0.31242,0.650852 0.51123,0.952149 0.20208,0.295971 0.43002,0.573427 0.68115,0.829102 0.25673,0.252742 0.53624,0.481251 0.83496,0.682617 0.30166,0.199106 0.62144,0.369294 0.95508,0.508301 0.3326,0.135701 0.67744,0.239202 1.02979,0.309083 0.35499,0.07066 0.71617,0.105502 1.07812,0.104004 0.35963,-0.0023 0.7182,-0.0391 1.0708,-0.109864 0.341,-0.071 0.69979,-0.178406 1.02979,-0.316406 0.66364,-0.281128 1.26691,-0.687456 1.77686,-1.196778 0.25044,-0.257077 0.47742,-0.536018 0.67822,-0.833496 0.19,-0.296 0.36937,-0.629544 0.50537,-0.956544 0.40748,-1.008375 0.50936,-2.114329 0.29297,-3.180177 -0.072,-0.344 -0.18487,-0.703391 -0.31787,-1.025391 -0.42655,-1.002587 -1.13876,-1.857447 -2.04785,-2.458008 -0.294,-0.191 -0.62462,-0.365048 -0.95362,-0.498048 -0.33277,-0.132336 -0.67699,-0.233836 -1.02832,-0.303222 -0.35,-0.066 -0.72612,-0.09821 -1.07812,-0.09521 z m -2.79053,8.961917 c 0.11129,0.09069 0.22702,0.174348 0.35302,0.256348 -0.126,-0.082 -0.24173,-0.165661 -0.35302,-0.256348 z m 2.73193,7.189456 c -0.10902,1.72e-4 -0.21771,0.0045 -0.32666,0.01172 -0.21742,0.01438 -0.43369,0.04276 -0.64746,0.08496 -0.32,0.067 -0.6325,0.165039 -0.9375,0.290039 -0.3,0.129 -0.59026,0.281821 -0.86426,0.465821 -0.269,0.183 -0.52293,0.395488 -0.75293,0.625488 -0.93439,0.94067 -1.45345,2.21617 -1.4414,3.541994 3.5e-4,0.326821 0.0342,0.652745 0.10107,0.972656 0.0665,0.320885 0.1631,0.634777 0.28857,0.937501 0.38584,0.910101 1.03335,1.685069 1.86036,2.226563 0.54755,0.362163 1.16223,0.610726 1.80761,0.730957 0.32191,0.06189 0.64928,0.09085 0.97706,0.08643 0.324,0 0.64826,-0.03614 0.96826,-0.09815 0.317,-0.067 0.63017,-0.161039 0.93017,-0.290039 0.60082,-0.250078 1.14565,-0.617615 1.60254,-1.081055 0.23,-0.23 0.4367,-0.484395 0.6167,-0.754395 0.35536,-0.545095 0.60298,-1.153225 0.72949,-1.791504 0.063,-0.321 0.0948,-0.646192 0.0908,-0.971192 0,-0.328 -0.0317,-0.655586 -0.0937,-0.975586 -0.066,-0.32 -0.16065,-0.632501 -0.28565,-0.937501 -0.128,-0.3 -0.28182,-0.588793 -0.46582,-0.862793 -0.183,-0.273 -0.38963,-0.523789 -0.61963,-0.758789 -0.46524,-0.462821 -1.01731,-0.829205 -1.62451,-1.078126 -0.301,-0.125 -0.6175,-0.21925 -0.9375,-0.28125 -0.32155,-0.06249 -0.64853,-0.09427 -0.97559,-0.09375 z m -0.003,15.667975 c -0.32638,9.33e-4 -0.65181,0.03529 -0.97119,0.102539 -0.32,0.062 -0.6325,0.15918 -0.9375,0.28418 -0.3,0.129 -0.59026,0.28582 -0.86426,0.46582 -0.269,0.183 -0.52293,0.395489 -0.75293,0.625489 -0.93439,0.94067 -1.45345,2.21617 -1.4414,3.541993 5.2e-4,0.328261 0.0344,0.655631 0.10107,0.977051 0.0665,0.31945 0.16314,0.63188 0.28857,0.93311 0.38584,0.9101 1.03335,1.68506 1.86036,2.22656 0.27283,0.18132 0.56339,0.33445 0.86718,0.45703 0.61005,0.2426 1.26097,0.36593 1.91749,0.36328 0.65179,-0.006 1.29638,-0.1369 1.89843,-0.38672 0.60031,-0.25302 1.14486,-0.62186 1.60254,-1.08545 0.23,-0.23 0.4367,-0.48393 0.6167,-0.75293 0.18,-0.274 0.32764,-0.55986 0.45264,-0.85986 0.121,-0.305 0.21485,-0.61311 0.27685,-0.93311 0.063,-0.321 0.0948,-0.64619 0.0908,-0.971187 0,-0.328 -0.0317,-0.651587 -0.0937,-0.975587 -0.067,-0.32 -0.16165,-0.6325 -0.28565,-0.9375 -0.38075,-0.911096 -1.02174,-1.689667 -1.84277,-2.238282 -0.274,-0.183 -0.56319,-0.336426 -0.86719,-0.461426 -0.301,-0.125 -0.61897,-0.21925 -0.93897,-0.28125 -0.32,-0.063 -0.64805,-0.09375 -0.97705,-0.09375 z m 142.97906,5.929692 c 4.05639,0.0486 7.31903,3.35104 7.31983,7.40772 8e-4,4.05667 -3.26053,7.35896 -7.3169,7.40918 -4.12686,0.0511 -7.49919,-3.27908 -7.5,-7.40626 -8.2e-4,-4.12716 3.37019,-7.4601 7.49707,-7.41064 z m -285.688585,0.002 c 4.089618,4.1e-4 7.405032,3.31517 7.406253,7.40479 0.0015,4.09168 -3.314576,7.40968 -7.406253,7.41065 -4.093622,8.7e-4 -7.41283,-3.31703 -7.413577,-7.41065 0,-4.09 3.319577,-7.40479 7.413577,-7.40479 z m 142.713995,9.73385 c -0.32713,5.8e-4 -0.65418,0.0331 -0.97559,0.0967 -0.32,0.066 -0.6325,0.16458 -0.9375,0.28858 -0.91112,0.38308 -1.68841,1.02734 -2.23389,1.85156 -0.17992,0.27418 -0.33297,0.56508 -0.45703,0.86865 -0.125,0.3 -0.21632,0.6175 -0.27832,0.9375 -0.003,0.0155 -0.004,0.0313 -0.007,0.0469 -0.0745,0.34739 -0.11461,0.70212 -0.11426,1.05908 0.003,0.65554 0.13357,1.30424 0.38379,1.91016 0.12481,0.30303 0.28093,0.59219 0.46582,0.86279 0.17912,0.27369 0.38683,0.52756 0.61963,0.75733 0.23173,0.23107 0.48536,0.43908 0.75732,0.62109 0.273,0.18 0.56426,0.33203 0.86426,0.45703 0.3043,0.12458 0.61966,0.22022 0.94189,0.28565 0.32031,0.063 0.64624,0.0929 0.97266,0.0893 0.65626,10e-4 1.30597,-0.13053 1.91016,-0.38672 0.304,-0.125 0.58879,-0.28182 0.86279,-0.46582 0.274,-0.183 0.5244,-0.38902 0.7544,-0.62402 0.23078,-0.23082 0.43741,-0.48457 0.6167,-0.75733 0.1829,-0.27241 0.33611,-0.56362 0.45703,-0.86865 0.13181,-0.32203 0.22827,-0.65683 0.29004,-0.99756 0.006,-0.0269 0.0123,-0.0536 0.0176,-0.0806 0.063,-0.316 0.0948,-0.6388 0.0908,-0.9668 0,-0.329 -0.0317,-0.65412 -0.0937,-0.97412 -0.067,-0.32 -0.16165,-0.6325 -0.28565,-0.9375 -0.25407,-0.60536 -0.62263,-1.15596 -1.08545,-1.62159 -0.46537,-0.46229 -1.01743,-0.82817 -1.62451,-1.07666 -0.301,-0.125 -0.6175,-0.21925 -0.9375,-0.28125 -0.2138,-0.0417 -0.43007,-0.0696 -0.64746,-0.0835 -0.109,-0.007 -0.21762,-0.0104 -0.32666,-0.0103 z m 132.79692,8.98096 c 1.51566,1.36154 3.30642,2.42118 5.27784,3.09082 v 137.5401 c -6.0087,2.04225 -10.33595,7.72773 -10.33595,14.42578 0,1.02766 0.10311,2.0308 0.29737,3.00147 L 210.8555,329.18894 c -1.7888,-2.48695 -4.30666,-4.41357 -7.24219,-5.46387 V 184.8549 c 5.15037,-2.02225 8.90167,-6.82394 9.40723,-12.55811 z m -265.381446,0.0439 117.786666,52.80471 c 0.50551,5.73439 4.25662,10.53599 9.40869,12.55811 v 139.1148 c -2.74658,1.12455 -5.09087,3.02766 -6.76025,5.43603 L 70.321269,277.56782 c 0.202147,-0.98956 0.307617,-2.01382 0.307617,-3.06299 0,-6.75367 -4.395472,-12.47911 -10.480961,-14.47705 V 122.58876 c 2.008621,-0.65913 3.833077,-1.72214 5.375979,-3.09668 z m 132.584526,6.63574 c -0.32713,5.8e-4 -0.65418,0.0331 -0.97559,0.0967 -0.32,0.066 -0.6325,0.16358 -0.9375,0.28858 -0.3,0.129 -0.59026,0.28182 -0.86426,0.46582 -0.269,0.184 -0.52293,0.39402 -0.75293,0.62402 -0.1555,0.15655 -0.29874,0.32269 -0.43066,0.49658 -0.11036,0.13348 -0.21368,0.27268 -0.30908,0.41748 -0.36005,0.54893 -0.61073,1.1622 -0.73829,1.80616 -0.058,0.324 -0.0893,0.64758 -0.0893,0.97558 0.009,0.6561 0.14323,1.30444 0.39551,1.91016 0.38544,0.90991 1.03242,1.68485 1.85888,2.22656 0.54811,0.36183 1.1633,0.6099 1.80909,0.7295 0.321,0.063 0.64465,0.0908 0.97265,0.0908 v 0.001 c 0.65198,-0.005 1.29674,-0.13707 1.89844,-0.38818 0.2995,-0.12677 0.586,-0.28228 0.85547,-0.46436 0.43055,-0.28984 0.81076,-0.64707 1.1294,-1.05469 0.12865,-0.15086 0.24926,-0.30871 0.35888,-0.47314 0.35553,-0.54554 0.60316,-1.15418 0.72949,-1.79297 0.063,-0.32 0.0948,-0.64426 0.0908,-0.96826 0,-0.328 -0.0317,-0.65705 -0.0937,-0.97705 -0.066,-0.32 -0.16065,-0.6335 -0.28565,-0.9375 -0.128,-0.301 -0.28182,-0.5888 -0.46582,-0.8628 -0.183,-0.273 -0.38963,-0.52379 -0.61963,-0.75879 -0.46524,-0.46282 -1.01731,-0.8292 -1.62451,-1.07812 -0.301,-0.125 -0.6175,-0.21825 -0.9375,-0.28125 -0.21384,-0.0412 -0.4301,-0.0686 -0.64746,-0.082 -0.109,-0.007 -0.21762,-0.0105 -0.32666,-0.0103 z m -0.12452,0.15235 c 0.12353,-5e-4 0.24653,0.003 0.36915,0.0117 0.12261,0.009 0.24498,0.0219 0.36621,0.0395 0.0954,0.0139 0.18994,0.0319 0.28418,0.0513 -0.0941,-0.0193 -0.189,-0.0374 -0.28418,-0.0513 -0.12123,-0.0177 -0.2436,-0.0309 -0.36621,-0.0395 -0.12262,-0.009 -0.24562,-0.0122 -0.36915,-0.0117 z m 1.17774,0.13769 c 0.0643,0.0154 0.12826,0.0318 0.19189,0.0498 -0.0636,-0.018 -0.12756,-0.0344 -0.19189,-0.0498 z m 0.3501,0.0982 c 0.0648,0.0206 0.12941,0.0426 0.19336,0.0659 -0.064,-0.0233 -0.12853,-0.0453 -0.19336,-0.0659 z m 0.33984,0.12158 c 0.0713,0.0286 0.14239,0.0589 0.2124,0.0908 -0.0703,-0.032 -0.14078,-0.0621 -0.2124,-0.0908 z m 0.31787,0.14062 c 0.0935,0.0453 0.1861,0.0924 0.27686,0.14356 0.10706,0.0604 0.21215,0.12485 0.31494,0.19336 -0.10279,-0.0685 -0.20788,-0.13297 -0.31494,-0.19336 -0.0907,-0.0512 -0.18343,-0.0983 -0.27686,-0.14356 z m -2.18555,15.16993 c -0.65591,0.005 -1.3046,0.13752 -1.91015,0.38965 -0.304,0.125 -0.5898,0.28136 -0.8628,0.46436 -0.274,0.184 -0.52439,0.39148 -0.75439,0.62548 -0.23078,0.23082 -0.43742,0.48458 -0.6167,0.75733 -0.18034,0.27366 -0.33388,0.56406 -0.4585,0.86719 -0.24985,0.60712 -0.37586,1.25805 -0.3706,1.91455 0.009,0.65609 0.14323,1.30443 0.39551,1.91016 0.12816,0.30245 0.28513,0.59187 0.46875,0.86425 0.18444,0.26995 0.39493,0.52115 0.62841,0.75 0.23316,0.22995 0.48829,0.4365 0.76172,0.6167 0.27296,0.17991 0.56352,0.33157 0.86719,0.45264 0.30456,0.12171 0.61992,0.21441 0.9419,0.27686 0.32067,0.0601 0.64641,0.089 0.97265,0.0864 l 0.001,0.001 c 0.65148,-0.005 1.29572,-0.13726 1.89697,-0.38819 0.60046,-0.25433 1.14573,-0.62298 1.60547,-1.08545 0.23,-0.231 0.43231,-0.48139 0.61231,-0.75439 0.18,-0.274 0.33203,-0.55887 0.45703,-0.85987 0.2447,-0.60394 0.36958,-1.24973 0.36767,-1.90136 0,-0.328 -0.0307,-0.65205 -0.0967,-0.97705 -0.063,-0.32 -0.15711,-0.63311 -0.28711,-0.93311 -0.125,-0.305 -0.27696,-0.59419 -0.45996,-0.86719 -0.36721,-0.54396 -0.8369,-1.01116 -1.38281,-1.37549 -0.82229,-0.54802 -1.78918,-0.8387 -2.77735,-0.83496 z m 0.18311,21.79249 c 4.00575,1e-5 7.25259,3.24816 7.25098,7.25391 -2.7e-4,4.00426 -3.24672,7.25005 -7.25098,7.24951 -4.008,0 -7.25684,-3.24651 -7.25684,-7.24951 6e-4,-4.00712 3.24972,-7.25492 7.25684,-7.25391 z m 17.90186,45.93752 c -1.63231,-0.006 -3.17333,0.78645 -4.11621,2.13574 -0.187,0.269 -0.34407,0.55547 -0.47607,0.85547 -0.133,0.297 -0.23469,0.60578 -0.30469,0.92578 -0.14066,0.63592 -0.15655,1.29308 -0.0469,1.93506 0.058,0.31999 0.1458,0.63385 0.26221,0.9375 0.11794,0.30307 0.26409,0.59439 0.43652,0.87012 0.17597,0.27387 0.37756,0.53039 0.60206,0.76611 0.22394,0.23549 0.47131,0.44752 0.73828,0.63282 0.265,0.18714 0.54758,0.34805 0.84375,0.48046 0.6,0.26547 1.24559,0.41269 1.90136,0.4336 0.328,0.008 0.65706,-0.0163 0.97706,-0.0703 0.6482,-0.10727 1.26774,-0.34551 1.8208,-0.7002 0.27631,-0.17452 0.53486,-0.37568 0.77197,-0.60059 0.47876,-0.44984 0.86145,-0.99199 1.125,-1.59375 0.133,-0.297 0.23955,-0.61017 0.31055,-0.93017 0.07,-0.32 0.11212,-0.64466 0.12012,-0.97266 0.0161,-0.65505 -0.0979,-1.30679 -0.33545,-1.91748 -0.117,-0.309 -0.26492,-0.59798 -0.44092,-0.87598 -0.53261,-0.8328 -1.29893,-1.49008 -2.20313,-1.88965 -0.297,-0.133 -0.61017,-0.23615 -0.93017,-0.30615 -0.2398,-0.0525 -0.48313,-0.0872 -0.72803,-0.104 -0.10948,-0.008 -0.21931,-0.0113 -0.32813,-0.0117 z m -37.55275,0.25781 c -0.43393,-0.008 -0.86715,0.0389 -1.28906,0.14063 -0.317,0.078 -0.62146,0.1828 -0.91846,0.3208 -0.59512,0.2773 -1.13088,0.66731 -1.57763,1.14843 -0.223,0.238 -0.41834,0.4993 -0.59034,0.7793 -0.172,0.278 -0.31327,0.57037 -0.42627,0.88037 -0.22373,0.61621 -0.32716,1.26962 -0.30468,1.92481 0.0146,0.32788 0.0607,0.6536 0.13769,0.97266 0.156,0.63768 0.43408,1.23909 0.81885,1.77099 0.19572,0.26205 0.41435,0.50618 0.65332,0.72949 0.24193,0.22052 0.50491,0.41677 0.78516,0.58594 0.27964,0.1709 0.57552,0.31368 0.8833,0.42627 0.61666,0.22126 1.27016,0.32172 1.9248,0.2959 0.328,-0.015 0.65266,-0.0626 0.97266,-0.14062 0.31716,-0.0785 0.62616,-0.18688 0.92285,-0.32374 0.29675,-0.14054 0.5793,-0.30929 0.84375,-0.5039 0.261,-0.192 0.5061,-0.41032 0.7251,-0.65332 0.22164,-0.24047 0.41798,-0.50308 0.58594,-0.78369 0.172,-0.281 0.31334,-0.57823 0.42334,-0.88623 0.113,-0.309 0.1917,-0.62569 0.2417,-0.95069 0.14389,-0.97769 -0.003,-1.97612 -0.42188,-2.87109 -0.14,-0.293 -0.30458,-0.57443 -0.49658,-0.83643 -0.191,-0.261 -0.40946,-0.5031 -0.64746,-0.7251 -0.48421,-0.43681 -1.0469,-0.7778 -1.6582,-1.00488 -0.308,-0.11 -0.61897,-0.1917 -0.93897,-0.2417 -0.21493,-0.0319 -0.43168,-0.05 -0.64893,-0.0542 z m 51.69143,6.14502 c -0.24473,0.007 -0.48867,0.0334 -0.73242,0.0776 -0.32153,0.0555 -0.63627,0.14483 -0.93897,0.2666 -0.61391,0.2342 -1.17364,0.59107 -1.64502,1.04883 -0.47583,0.45154 -0.85463,0.99532 -1.11328,1.59814 h -0.001 c -0.132,0.3 -0.23323,0.60579 -0.30323,0.92579 -0.14114,0.63582 -0.15759,1.29298 -0.0483,1.93506 0.11418,0.64264 0.35197,1.25702 0.7002,1.80908 0.35032,0.5496 0.80583,1.02452 1.34033,1.39746 0.53338,0.37741 1.13555,0.64665 1.77246,0.79248 0.31961,0.0712 0.64533,0.11142 0.97266,0.12012 0.32718,0.008 0.65437,-0.0157 0.97705,-0.0703 0.32276,-0.0542 0.63928,-0.14056 0.94483,-0.25782 0.308,-0.117 0.59797,-0.26552 0.87597,-0.43652 0.83444,-0.52889 1.4943,-1.2922 1.89698,-2.19434 0.13214,-0.29961 0.23563,-0.61106 0.30908,-0.93017 0.071,-0.321 0.10958,-0.64613 0.12158,-0.97413 0.008,-0.328 -0.0207,-0.65705 -0.0747,-0.97705 -0.16849,-0.97425 -0.62397,-1.87603 -1.3081,-2.58984 -0.226,-0.238 -0.47268,-0.45214 -0.74268,-0.64014 -0.27,-0.187 -0.55547,-0.34747 -0.85547,-0.48047 -0.297,-0.132 -0.60871,-0.23322 -0.92871,-0.30322 -0.32,-0.071 -0.64612,-0.11019 -0.97412,-0.11719 -0.082,-0.002 -0.16305,-0.002 -0.24463,0 z m -66.06594,0.39991 c -0.0613,5e-4 -0.12328,0.003 -0.18457,0.006 -0.325,0.015 -0.64834,0.0612 -0.96534,0.13623 -0.63433,0.15857 -1.23248,0.43701 -1.7622,0.82032 -0.265,0.191 -0.51089,0.40692 -0.73389,0.64892 -0.44553,0.48204 -0.79107,1.04763 -1.0166,1.66407 -0.2237,0.61619 -0.32665,1.26968 -0.30323,1.9248 0.0139,0.32641 0.0595,0.65069 0.13624,0.96826 0.15662,0.63728 0.43519,1.23819 0.82031,1.76954 0.58182,0.79991 1.39003,1.40709 2.32031,1.74316 0.30756,0.11301 0.6255,0.19544 0.94922,0.24609 0.32334,0.0479 0.65052,0.0645 0.97705,0.0498 0.65612,-0.026 1.30028,-0.18397 1.89405,-0.46436 0.29741,-0.13754 0.58011,-0.30491 0.84375,-0.49951 0.52719,-0.39041 0.97303,-0.88005 1.3125,-1.4414 0.34011,-0.5606 0.56611,-1.18287 0.66504,-1.83106 0.0945,-0.64995 0.0622,-1.31206 -0.0952,-1.94971 -0.078,-0.316 -0.18666,-0.62585 -0.32666,-0.92285 -0.141,-0.297 -0.30512,-0.57496 -0.49512,-0.83496 -0.38287,-0.52906 -0.8699,-0.97421 -1.43115,-1.30811 -0.73208,-0.44947 -1.56695,-0.69734 -2.42139,-0.72217 -0.061,-0.002 -0.12177,-0.003 -0.1831,-0.003 z m 80.34671,6.08349 c -0.57262,0.0142 -1.13896,0.125 -1.67578,0.32813 -0.309,0.117 -0.59891,0.26552 -0.87891,0.43652 -0.5538,0.35311 -1.03386,0.81029 -1.41358,1.34619 -0.37619,0.53658 -0.64482,1.14099 -0.79101,1.77979 -0.07,0.32 -0.11212,0.64466 -0.12012,0.97266 -0.009,0.32733 0.0155,0.65472 0.0732,0.97705 0.16768,0.97392 0.62212,1.87566 1.30518,2.58984 0.22774,0.23703 0.47794,0.45141 0.74707,0.64014 0.53556,0.37769 1.14115,0.64463 1.78125,0.78516 0.3197,0.0702 0.64542,0.10948 0.97266,0.11718 0.328,0.007 0.65705,-0.0197 0.97705,-0.0747 0.32257,-0.0585 0.6389,-0.14729 0.94482,-0.26514 0.60949,-0.24103 1.1666,-0.59768 1.64063,-1.05029 0.47169,-0.45741 0.85069,-1.00153 1.11621,-1.60254 0.12939,-0.29736 0.23185,-0.60573 0.30615,-0.92139 0.0702,-0.31822 0.10945,-0.64248 0.11719,-0.96826 0.008,-0.324 -0.0162,-0.64826 -0.0762,-0.96826 -0.10884,-0.6432 -0.3449,-1.25823 -0.69434,-1.80909 -0.35055,-0.55023 -0.80599,-1.02607 -1.34033,-1.40039 -0.265,-0.187 -0.54668,-0.346 -0.84668,-0.479 -0.297,-0.132 -0.61018,-0.23908 -0.93018,-0.30908 -0.316,-0.075 -0.64026,-0.11652 -0.96826,-0.12452 -0.082,-0.002 -0.16429,-0.002 -0.24609,0 z m -94.5601,0.38379 c -0.0817,-7.5e-4 -0.1628,-3.1e-4 -0.24463,0.003 -0.329,0.015 -0.65265,0.0626 -0.97265,0.14063 -0.316,0.078 -0.62585,0.18773 -0.92285,0.32373 -0.297,0.141 -0.57776,0.30451 -0.84376,0.49951 -0.266,0.196 -0.50609,0.41471 -0.72509,0.65771 -0.223,0.242 -0.41794,0.5037 -0.58594,0.7837 -0.51283,0.84554 -0.7622,1.82466 -0.71631,2.8125 0.0151,0.32734 0.0637,0.65228 0.14502,0.96972 0.0783,0.31733 0.18823,0.626 0.32813,0.92139 0.13645,0.29555 0.30128,0.57715 0.49218,0.84082 0.1932,0.26142 0.41152,0.5033 0.65186,0.72217 0.23835,0.22164 0.49902,0.418 0.77783,0.58594 0.27805,0.1679 0.57135,0.30915 0.87598,0.42187 0.30675,0.10973 0.62306,0.19065 0.94482,0.2417 0.97005,0.14643 1.96175,0.005 2.85205,-0.40722 0.59671,-0.27462 1.13296,-0.66498 1.57764,-1.14844 0.22358,-0.23906 0.42235,-0.50016 0.59326,-0.7793 0.5145,-0.84253 0.76737,-1.81881 0.72657,-2.80518 -0.012,-0.328 -0.0582,-0.65265 -0.13623,-0.97265 -0.15151,-0.63816 -0.43054,-1.23908 -0.82032,-1.7666 -0.192,-0.265 -0.41032,-0.5105 -0.65332,-0.7295 -0.48203,-0.44553 -1.04763,-0.79106 -1.66406,-1.0166 -0.53968,-0.19321 -1.10813,-0.29358 -1.68018,-0.29883 z m 108.67534,5.68213 c -1.6338,-2.5e-4 -3.16466,0.79772 -4.1001,2.13721 -0.188,0.27 -0.34808,0.55547 -0.47608,0.85547 -0.132,0.297 -0.23468,0.60539 -0.30468,0.92139 -0.14107,0.63682 -0.15753,1.29493 -0.0483,1.93799 0.11388,0.64135 0.35171,1.25435 0.70019,1.80468 0.17399,0.27527 0.37572,0.53199 0.60205,0.76612 0.2229,0.23745 0.47038,0.45056 0.73828,0.63574 0.26421,0.18717 0.54694,0.3467 0.84375,0.47608 0.59832,0.27071 1.24487,0.41865 1.90137,0.43505 0.32708,0.0113 0.65446,-0.0108 0.97705,-0.0659 1.30612,-0.22617 2.46925,-0.96103 3.23438,-2.04346 0.191,-0.266 0.35186,-0.55254 0.48486,-0.85254 0.13214,-0.29961 0.23563,-0.61106 0.30909,-0.93018 0.071,-0.32 0.10811,-0.64319 0.12011,-0.97119 0.008,-0.328 -0.0192,-0.65305 -0.0732,-0.97705 -0.16891,-0.97442 -0.62491,-1.87622 -1.30957,-2.58984 -0.226,-0.238 -0.47268,-0.44875 -0.74268,-0.63575 -0.27,-0.192 -0.554,-0.35186 -0.854,-0.48486 -0.63147,-0.27617 -1.31322,-0.4188 -2.00244,-0.41895 z m -122.44487,0.85694 c -0.0813,-7.8e-4 -0.16327,-3e-4 -0.24463,0.003 -0.324,0.015 -0.64394,0.0626 -0.96094,0.14062 -2.31588,0.55772 -3.91421,2.67512 -3.81592,5.05518 0.0122,0.32801 0.0578,0.65392 0.13623,0.97266 0.1515,0.63816 0.43054,1.23908 0.82031,1.7666 0.19144,0.26553 0.41043,0.51005 0.65332,0.72949 0.24061,0.22087 0.50153,0.41853 0.7793,0.59033 0.28011,0.16965 0.57591,0.31191 0.8833,0.42481 0.30867,0.11035 0.62694,0.19176 0.95069,0.24316 0.324,0.05 0.65198,0.0658 0.97998,0.0498 0.65608,-0.0275 1.30004,-0.18588 1.89404,-0.46582 0.29697,-0.13664 0.57879,-0.30406 0.84082,-0.49952 0.26373,-0.19311 0.50804,-0.41142 0.72949,-0.65185 0.218,-0.246 0.41394,-0.50816 0.58594,-0.78516 0.168,-0.281 0.30748,-0.57823 0.41748,-0.88623 0.112,-0.31 0.19617,-0.62522 0.24317,-0.94922 0.051,-0.324 0.0648,-0.65205 0.0498,-0.97705 -0.016,-0.328 -0.0625,-0.65265 -0.14355,-0.97265 -0.08,-0.317 -0.18759,-0.62439 -0.32959,-0.92139 -0.41172,-0.8909 -1.08053,-1.63826 -1.92041,-2.146 -0.278,-0.171 -0.57138,-0.31141 -0.88038,-0.42041 -0.53595,-0.19396 -1.09967,-0.29488 -1.66845,-0.30029 z m 136.76811,5.5415 c -0.11666,-7.8e-4 -0.23345,0.003 -0.35009,0.0103 -1.17787,0.0745 -2.2914,0.56333 -3.14356,1.37988 -0.235,0.231 -0.44874,0.47707 -0.63574,0.74707 -0.187,0.27 -0.34454,0.55547 -0.47754,0.85547 -0.3957,0.89788 -0.517,1.89273 -0.34863,2.85938 0.10749,0.64312 0.3458,1.25735 0.70019,1.80468 0.17211,0.27677 0.3724,0.53498 0.59766,0.77051 0.22482,0.23456 0.4721,0.44651 0.73828,0.63282 0.265,0.18714 0.54758,0.34805 0.84375,0.48046 0.60046,0.26565 1.24656,0.41288 1.90283,0.4336 0.32719,0.008 0.65437,-0.0157 0.97705,-0.0703 0.6477,-0.10746 1.26673,-0.3457 1.81934,-0.7002 0.83631,-0.52583 1.49719,-1.28868 1.89844,-2.19141 0.26513,-0.60153 0.41137,-1.24867 0.43066,-1.90576 0.0251,-0.98789 -0.24574,-1.96073 -0.77783,-2.79346 -0.5326,-0.8328 -1.29893,-1.49008 -2.20312,-1.88965 -0.297,-0.133 -0.61018,-0.23615 -0.93018,-0.30615 -0.34244,-0.0754 -0.69152,-0.11483 -1.04151,-0.11719 z m -150.99615,1.00489 c -0.0813,-3.5e-4 -0.16319,0.001 -0.24463,0.004 -0.324,0.016 -0.64347,0.0622 -0.95947,0.13623 -0.317,0.078 -0.62446,0.18673 -0.91846,0.32373 -1.83635,0.84494 -2.9812,2.71464 -2.89892,4.73438 0.0124,0.32663 0.0586,0.65111 0.13769,0.96826 0.14962,0.63971 0.42881,1.24196 0.82032,1.76953 0.38678,0.52979 0.87407,0.97826 1.43408,1.31983 0.2793,0.16939 0.57468,0.3107 0.88183,0.42187 0.30756,0.11302 0.6255,0.19545 0.94922,0.2461 0.64929,0.098 1.31141,0.0691 1.94971,-0.085 0.32,-0.078 0.62439,-0.18713 0.92139,-0.32813 0.301,-0.14 0.57775,-0.30498 0.84375,-0.50098 0.79791,-0.58307 1.40217,-1.39249 1.73437,-2.32324 0.22419,-0.61789 0.32377,-1.27408 0.29297,-1.93066 -0.016,-0.328 -0.0615,-0.6468 -0.14355,-0.9668 -0.079,-0.317 -0.18859,-0.62585 -0.32959,-0.92285 -0.136,-0.297 -0.30312,-0.57443 -0.49512,-0.83643 -0.191,-0.266 -0.41093,-0.50656 -0.64893,-0.72656 -0.242,-0.218 -0.49936,-0.41354 -0.77636,-0.58154 -0.282,-0.171 -0.57037,-0.31288 -0.88037,-0.42188 -0.53563,-0.19691 -1.10051,-0.29788 -1.66993,-0.30029 z m 165.36188,5.39795 c -0.98889,-0.0249 -1.96236,0.24867 -2.79346,0.78515 -0.27627,0.17552 -0.53395,0.37871 -0.76904,0.60645 -0.47206,0.45684 -0.85156,1.00047 -1.11767,1.60108 -0.129,0.297 -0.2303,0.60538 -0.3003,0.92138 -0.075,0.32 -0.11358,0.64133 -0.12158,0.96533 -0.007,0.32587 0.0185,0.65161 0.0747,0.97266 0.22687,1.29648 0.95923,2.44983 2.03613,3.20655 0.26525,0.18714 0.54896,0.34666 0.84668,0.47607 0.59888,0.2704 1.24593,0.41784 1.90283,0.43359 0.32659,0.0112 0.65347,-0.0109 0.97559,-0.0659 0.9742,-0.16799 1.87687,-0.6206 2.59424,-1.30079 0.238,-0.227 0.45014,-0.47267 0.64014,-0.74267 0.38012,-0.53471 0.64864,-1.14051 0.78955,-1.78125 0.0735,-0.31875 0.11424,-0.64417 0.12158,-0.97119 0.008,-0.328 -0.0163,-0.65352 -0.0703,-0.97852 -0.11447,-0.646 -0.35487,-1.26319 -0.70752,-1.81641 -0.34882,-0.55641 -0.80737,-1.03589 -1.34766,-1.40918 -0.265,-0.191 -0.55107,-0.35147 -0.85107,-0.48047 -0.301,-0.133 -0.61018,-0.23468 -0.93018,-0.30468 -0.321,-0.074 -0.64466,-0.11319 -0.97266,-0.11719 z m -179.50934,1.1499 c -0.43342,-0.01 -0.86626,0.0371 -1.2876,0.13916 -0.316,0.078 -0.62146,0.18773 -0.91846,0.32373 -1.20434,0.55256 -2.13785,1.5636 -2.59277,2.80811 -0.114,0.31 -0.19503,0.62668 -0.24903,0.95068 -0.14927,0.97612 -0.008,1.97458 0.40577,2.8711 0.13603,0.29729 0.30192,0.57999 0.49511,0.84375 0.38827,0.52952 0.87646,0.97789 1.43701,1.31982 0.27937,0.17022 0.57533,0.31157 0.88331,0.42188 0.92831,0.33589 1.9349,0.39142 2.89453,0.15967 0.32,-0.082 0.63024,-0.18813 0.92724,-0.32813 0.5928,-0.28012 1.12561,-0.67263 1.56885,-1.15576 0.22172,-0.24093 0.41807,-0.50404 0.58594,-0.78516 0.16793,-0.2806 0.30917,-0.57633 0.42188,-0.8833 0.109,-0.309 0.19177,-0.62422 0.23877,-0.94922 0.05,-0.323 0.0658,-0.65198 0.0498,-0.97998 -0.015,-0.328 -0.0612,-0.64826 -0.13916,-0.96826 -0.082,-0.317 -0.19252,-0.62439 -0.33252,-0.92139 -0.137,-0.297 -0.30119,-0.57582 -0.49219,-0.84082 -0.196,-0.262 -0.41032,-0.50317 -0.65332,-0.72217 -0.4779,-0.44227 -1.0398,-0.78399 -1.65234,-1.00488 -0.309,-0.113 -0.62083,-0.1947 -0.94483,-0.2417 -0.21386,-0.033 -0.42965,-0.0521 -0.64599,-0.0571 z m 193.80915,5.25147 c -0.327,-0.007 -0.65498,0.0212 -0.97998,0.0762 -0.32,0.058 -0.63589,0.14714 -0.94189,0.26514 -0.60897,0.24119 -1.16557,0.59783 -1.63916,1.05029 -0.47222,0.45727 -0.85173,1.00141 -1.11768,1.60254 -0.129,0.296 -0.23029,0.60432 -0.30029,0.92432 -0.074,0.317 -0.11359,0.63733 -0.12159,0.96533 -0.0124,0.65096 0.10152,1.29816 0.33545,1.90576 0.23308,0.60924 0.58514,1.16596 1.03565,1.6377 0.45187,0.46978 0.99065,0.84737 1.58643,1.11181 0.60035,0.26616 1.24646,0.41388 1.90283,0.43506 1.66702,0.0418 3.24545,-0.74907 4.20996,-2.10937 0.187,-0.27 0.35186,-0.55547 0.48486,-0.85547 0.133,-0.298 0.23469,-0.61018 0.30469,-0.93018 0.0736,-0.31922 0.11434,-0.64514 0.12158,-0.97266 0.007,-0.328 -0.0162,-0.65205 -0.0762,-0.97705 -0.054,-0.32 -0.14074,-0.63543 -0.26074,-0.94043 -0.117,-0.309 -0.26492,-0.59897 -0.44092,-0.87597 -0.175,-0.277 -0.37605,-0.53444 -0.60205,-0.77344 -0.227,-0.234 -0.47707,-0.44874 -0.74707,-0.63574 -0.53556,-0.3777 -1.14115,-0.64463 -1.78125,-0.78516 -0.32,-0.071 -0.64366,-0.11065 -0.97266,-0.11865 z M 93.549305,249.1308 c -0.433471,-0.009 -0.86627,0.0384 -1.287598,0.14062 -0.317,0.078 -0.621458,0.18381 -0.918458,0.32081 -0.297,0.141 -0.57775,0.30411 -0.84375,0.49511 -0.266,0.192 -0.511887,0.41032 -0.733887,0.65332 -0.223,0.238 -0.418332,0.49977 -0.590332,0.78077 -0.170748,0.27766 -0.313537,0.57158 -0.42627,0.87744 -0.113,0.31 -0.194023,0.62668 -0.249023,0.95068 -0.04974,0.32414 -0.06838,0.65229 -0.05566,0.97998 0.01482,0.3269 0.06092,0.65163 0.137695,0.96973 0.078,0.321 0.183731,0.62578 0.323731,0.92578 0.136491,0.29736 0.302875,0.58007 0.496582,0.84375 0.194124,0.26291 0.412355,0.50713 0.651855,0.72949 0.241932,0.22052 0.50491,0.41677 0.785157,0.58594 0.279237,0.17164 0.575191,0.31446 0.883301,0.42627 0.616567,0.22175 1.270064,0.32271 1.924806,0.29736 0.655937,-0.0318 1.299564,-0.18993 1.895508,-0.46582 0.295842,-0.14052 0.578261,-0.30771 0.84375,-0.49951 1.068705,-0.78516 1.779142,-1.965 1.973146,-3.27685 0.09667,-0.64866 0.06582,-1.30995 -0.09082,-1.94678 -0.082,-0.32 -0.191054,-0.62832 -0.331054,-0.92432 -0.137,-0.293 -0.301653,-0.57543 -0.493653,-0.83643 -0.195,-0.263 -0.409856,-0.50316 -0.651856,-0.72216 -0.238,-0.223 -0.496367,-0.41794 -0.776367,-0.58594 -0.278,-0.168 -0.571977,-0.30888 -0.875977,-0.42188 -0.309,-0.109 -0.620825,-0.19316 -0.944825,-0.24316 -0.213939,-0.032 -0.429721,-0.0501 -0.645996,-0.0542 z m 222.076255,5.18701 c -0.24469,0.005 -0.48796,0.0261 -0.73096,0.0703 -0.32264,0.0547 -0.63911,0.14104 -0.94482,0.25781 -0.92223,0.35482 -1.71885,0.97459 -2.28955,1.78125 -0.38038,0.53509 -0.65029,1.14064 -0.79395,1.78125 -0.14052,0.64088 -0.15641,1.30281 -0.0469,1.94971 0.0585,0.32241 0.14676,0.63871 0.26367,0.94482 0.11892,0.30456 0.26605,0.59734 0.43945,0.87451 0.17741,0.27538 0.38046,0.53337 0.60645,0.77051 0.22476,0.23705 0.47312,0.45056 0.74121,0.63721 0.26752,0.1893 0.55309,0.35171 0.85254,0.48486 0.30147,0.12843 0.61373,0.2299 0.9331,0.30323 0.3197,0.0702 0.64543,0.10948 0.97266,0.11718 0.32693,0.005 0.65362,-0.0207 0.97559,-0.0776 0.32296,-0.0547 0.63919,-0.14357 0.94336,-0.26514 0.30523,-0.11755 0.59774,-0.26577 0.87304,-0.44238 0.27602,-0.17596 0.5341,-0.37859 0.77051,-0.60498 0.235,-0.231 0.45021,-0.47561 0.63721,-0.74561 0.187,-0.27 0.34307,-0.55447 0.47607,-0.85547 0.13307,-0.29782 0.23517,-0.60854 0.30469,-0.92724 0.14027,-0.63498 0.15617,-1.29111 0.0469,-1.93213 -0.054,-0.324 -0.14421,-0.6375 -0.26221,-0.9375 -0.23281,-0.6086 -0.58436,-1.1648 -1.03418,-1.63624 -0.226,-0.235 -0.47228,-0.4502 -0.73828,-0.6372 -0.269,-0.188 -0.55115,-0.34408 -0.84815,-0.47608 -0.59887,-0.2704 -1.24593,-0.41784 -1.90283,-0.43359 -0.082,-0.002 -0.16307,-0.003 -0.24463,-0.001 z m -236.430264,1.27588 c -0.08195,-3.6e-4 -0.164094,0.002 -0.246094,0.006 -0.655379,0.0247 -1.298853,0.18266 -1.891114,0.46436 -0.301,0.137 -0.578751,0.30597 -0.843751,0.50097 -0.266,0.195 -0.507957,0.40986 -0.730957,0.65186 -1.12173,1.23504 -1.555049,2.94745 -1.155762,4.56738 0.08142,0.31733 0.191242,0.62668 0.328125,0.92432 0.139637,0.29339 0.30586,0.57337 0.496582,0.83643 0.194535,0.26079 0.411684,0.50392 0.648926,0.72656 0.240464,0.21909 0.501988,0.41389 0.780762,0.58154 0.275941,0.17084 0.569051,0.31224 0.874512,0.42188 0.613135,0.22127 1.263186,0.32224 1.914552,0.29736 0.325428,-0.0141 0.648721,-0.0597 0.965332,-0.13623 0.315124,-0.079 0.622137,-0.18735 0.916993,-0.32373 0.297204,-0.13679 0.57988,-0.30315 0.84375,-0.49658 0.265634,-0.19132 0.511484,-0.40871 0.733887,-0.64893 0.446287,-0.48227 0.793221,-1.04772 1.020997,-1.66406 0.112842,-0.30761 0.195268,-0.62553 0.246094,-0.94922 0.149467,-0.97583 0.0094,-1.97407 -0.402833,-2.87109 -0.277861,-0.59467 -0.669512,-1.12914 -1.152832,-1.57325 -0.242,-0.223 -0.503762,-0.41833 -0.780762,-0.59033 -0.282,-0.168 -0.574301,-0.30887 -0.883301,-0.42187 -0.309,-0.113 -0.625219,-0.1951 -0.949219,-0.2461 -0.24375,-0.0353 -0.488028,-0.056 -0.733887,-0.0571 z m -23.800791,11.5254 c 4.091677,9.6e-4 7.407715,3.31897 7.406253,7.41065 -4.12e-4,4.09018 -3.316063,7.40584 -7.406253,7.40625 -4.094,0 -7.413577,-3.31625 -7.413577,-7.40625 0,-4.094 3.319577,-7.41065 7.413577,-7.41065 z m 285.691515,0 a 7.408,7.408 0 0 1 7.40625,7.41065 7.407,7.407 0 0 1 -7.40625,7.40625 7.4084501,7.4084501 0 1 1 0,-14.8169 z m -142.60259,63.57424 c 4.09076,-4e-4 7.4073,3.31549 7.40771,7.40625 0.001,4.09225 -3.31546,7.4105 -7.40771,7.41065 -4.09214,-10e-4 -7.40899,-3.31851 -7.40919,-7.41065 0.002,-4.09064 3.31854,-7.4058 7.40919,-7.40625 z" />
</svg>
