<?xml version="1.0" encoding="UTF-8" standalone="no"?>
<svg
   width="450"
   height="450"
   preserveAspectRatio="none"
   viewBox="29.488 22.578 337.5 337.50026"
   version="1.1"
   id="svg66"
   sodipodi:docname="logo.svg"
   inkscape:version="1.4 (86a8ad7, 2024-10-11)"
   xmlns:inkscape="http://www.inkscape.org/namespaces/inkscape"
   xmlns:sodipodi="http://sodipodi.sourceforge.net/DTD/sodipodi-0.dtd"
   xmlns="http://www.w3.org/2000/svg"
   xmlns:svg="http://www.w3.org/2000/svg">
  <sodipodi:namedview
     id="namedview66"
     pagecolor="#ffffff"
     bordercolor="#000000"
     borderopacity="0.25"
     inkscape:showpageshadow="2"
     inkscape:pageopacity="0.0"
     inkscape:pagecheckerboard="0"
     inkscape:deskcolor="#d1d1d1"
     inkscape:zoom="1.9103782"
     inkscape:cx="65.170342"
     inkscape:cy="251.52088"
     inkscape:window-width="2560"
     inkscape:window-height="1369"
     inkscape:window-x="-8"
     inkscape:window-y="-8"
     inkscape:window-maximized="1"
     inkscape:current-layer="svg66" />
  <defs
     id="defs32" />
  <path
     id="path166"
     style="baseline-shift:baseline;display:inline;overflow:visible;vector-effect:none;fill:#44546a;enable-background:accumulate;stop-color:#000000;stop-opacity:1;opacity:1"
     d="M 198.18387 29.357299 C 189.94187 29.357299 183.26589 36.041669 183.26589 44.279669 C 183.26589 44.435334 183.27287 44.589504 183.27761 44.744024 L 66.100319 97.273341 C 63.350096 94.562595 59.575922 92.887597 55.409885 92.887597 L 55.409885 92.889062 C 46.991885 92.889062 40.17111 99.712376 40.17111 108.12637 C 40.17111 114.3559 43.911367 119.70905 49.269258 122.07023 L 49.269258 260.57126 C 43.911488 262.93327 40.17111 268.28705 40.17111 274.51657 C 40.17111 282.92657 46.990885 289.74656 55.409885 289.74656 C 58.755774 289.74656 61.848332 288.66542 64.361549 286.83738 L 183.41531 340.20752 C 184.44581 347.61611 190.80478 353.32227 198.50027 353.32227 C 206.30042 353.32227 212.72654 347.45985 213.62332 339.90429 L 332.09261 286.79636 C 334.61649 288.64954 337.73029 289.74656 341.1014 289.74656 C 349.5154 289.74656 356.33578 282.92657 356.33578 274.51657 C 356.33578 268.23051 352.52817 262.83374 347.09408 260.50534 L 347.09408 122.13614 C 352.52817 119.80857 356.33578 114.41243 356.33578 108.12637 C 356.33578 99.712376 349.5154 92.887597 341.1014 92.887597 L 341.1014 92.889062 C 336.91193 92.889062 333.11743 94.581402 330.36263 97.318751 L 213.08573 44.744024 C 213.09046 44.589504 213.09745 44.435334 213.09745 44.279669 C 213.09745 36.041669 206.42187 29.357299 198.18387 29.357299 z M 198.18387 37.049197 C 202.18847 37.050017 205.43418 40.297041 205.43338 44.301641 C 205.43392 48.305898 202.18812 51.552352 198.18387 51.552621 C 194.17587 51.552621 190.92556 48.305641 190.92556 44.301641 C 190.92656 40.294523 194.17675 37.047372 198.18387 37.049197 z M 208.79227 54.7577 L 325.89192 107.24893 C 325.87539 107.53961 325.86409 107.83156 325.86409 108.12637 C 325.86409 108.67498 325.89542 109.21581 325.95198 109.74942 L 209.90994 161.76751 C 207.17962 158.29392 202.9442 156.06047 198.18387 156.06047 C 193.42138 156.06047 189.18572 158.29413 186.45486 161.76751 L 70.549051 109.81241 C 70.610086 109.2584 70.644266 108.69665 70.644266 108.12637 C 70.644266 107.81015 70.631029 107.49739 70.612039 107.18594 L 187.57253 54.759165 C 190.27659 57.495457 194.03076 59.193248 198.18387 59.193248 C 202.33565 59.193248 206.08871 57.494803 208.79227 54.7577 z M 198.18094 62.994519 L 198.1868 63.489637 C 198.1443 63.245039 198.10198 63.001819 198.09158 63.003309 C 198.09158 63.003309 197.46285 63.035453 197.12185 63.101453 C 196.7702 63.175043 196.42636 63.281973 196.095 63.420789 C 195.771 63.556789 195.44403 63.734696 195.15603 63.924696 C 194.86103 64.124696 194.57686 64.363778 194.32986 64.608778 C 194.08186 64.859778 193.84657 65.152345 193.65457 65.439345 C 193.46257 65.732345 193.28666 66.062029 193.15066 66.390029 C 193.02166 66.712029 192.91397 67.072884 192.84597 67.416884 C 192.77797 67.768752 192.7441 68.126373 192.7449 68.484756 C 192.7479 68.8426 192.7828 69.199466 192.8489 69.551163 C 192.9231 69.903407 193.02798 70.248476 193.16238 70.582413 C 193.30416 70.914634 193.47576 71.23332 193.67507 71.534562 C 193.87669 71.830473 194.10414 72.107926 194.35476 72.363664 C 194.61195 72.616477 194.89195 72.844988 195.19119 73.046281 C 195.49238 73.245305 195.81166 73.415492 196.1448 73.554582 C 196.47787 73.690373 196.8232 73.793875 197.17605 73.863664 C 197.53056 73.934224 197.89125 73.969069 198.25271 73.967668 C 198.61283 73.965468 198.9719 73.928658 199.32498 73.857805 C 199.66598 73.786805 200.0233 73.679399 200.3533 73.541399 C 201.01694 73.260271 201.62021 72.853943 202.13016 72.344621 C 202.38111 72.087606 202.60858 71.808663 202.80984 71.511124 C 202.99984 71.215124 203.17922 70.881581 203.31522 70.554581 C 203.7222 69.546059 203.82358 68.440109 203.60672 67.374404 C 203.53472 67.030404 203.42185 66.671013 203.28885 66.349013 C 202.8623 65.346426 202.15009 64.491566 201.241 63.891004 C 200.947 63.700004 200.61785 63.525957 200.28885 63.392957 C 199.9556 63.260535 199.61089 63.159033 199.25906 63.089734 C 198.90906 63.023734 198.53294 62.991519 198.18094 62.994519 z M 198.12381 79.145893 C 198.01491 79.146049 197.90598 79.150392 197.79715 79.157612 C 197.57923 79.171922 197.36247 79.200303 197.14822 79.242573 C 196.82822 79.309573 196.51572 79.407612 196.21072 79.532612 C 195.91072 79.661612 195.62193 79.814432 195.34793 79.998432 C 195.07893 80.181432 194.82353 80.392456 194.59353 80.622456 C 193.65878 81.563484 193.13968 82.839585 193.15213 84.165914 C 193.15248 84.492736 193.18633 84.81866 193.2532 85.138571 C 193.3202 85.459505 193.41726 85.773399 193.54324 86.076071 C 193.92868 86.985977 194.57566 87.760922 195.40213 88.302635 C 195.95012 88.664979 196.56532 88.913548 197.21121 89.033592 C 197.53317 89.094992 197.86054 89.123463 198.18826 89.118553 C 198.51226 89.118553 198.83506 89.083873 199.15506 89.021873 C 199.47206 88.954873 199.78523 88.860834 200.08523 88.731834 C 200.68605 88.481756 201.23089 88.114218 201.68777 87.650779 C 201.91777 87.420779 202.12447 87.166384 202.30447 86.896384 C 202.66 86.350846 202.90763 85.742203 203.03397 85.103415 C 203.09697 84.782415 203.12879 84.458688 203.12479 84.133688 C 203.12479 83.805688 203.09304 83.478101 203.03104 83.158101 C 202.96504 82.838101 202.87039 82.525601 202.74539 82.220601 C 202.61739 81.920601 202.46504 81.630343 202.28104 81.356343 C 202.09804 81.083343 201.88994 80.834018 201.65994 80.599018 C 201.1947 80.136198 200.64263 79.769814 200.03543 79.520893 C 199.73443 79.395893 199.41793 79.301643 199.09793 79.239643 C 198.77673 79.177243 198.4505 79.145423 198.12381 79.145893 z M 198.12088 94.813868 C 197.79401 94.814701 197.46808 94.849058 197.14822 94.916407 C 196.82822 94.978407 196.51572 95.075587 196.21072 95.200587 C 195.91072 95.329587 195.62193 95.486407 195.34793 95.666407 C 195.07893 95.849407 194.82353 96.060431 194.59353 96.290431 C 193.65878 97.231459 193.13968 98.50756 193.15213 99.833889 C 193.15275 100.16167 193.18663 100.48853 193.2532 100.80948 C 193.3201 101.12947 193.41722 101.4424 193.54324 101.74405 C 193.92868 102.65395 194.57566 103.4289 195.40213 103.97061 C 195.67496 104.15193 195.96552 104.30506 196.26931 104.42764 C 196.87982 104.67043 197.53126 104.79375 198.18826 104.79092 C 198.83956 104.78492 199.48364 104.65383 200.08523 104.4042 C 200.68554 104.15118 201.23009 103.78234 201.68777 103.31875 C 201.91777 103.08875 202.12447 102.83336 202.30447 102.56436 C 202.48447 102.29036 202.63211 102.0045 202.75711 101.7045 C 202.87811 101.3995 202.97197 101.09139 203.03397 100.77139 C 203.09697 100.45039 203.12879 100.12666 203.12479 99.801663 C 203.12479 99.473663 203.09304 99.150076 203.03104 98.826076 C 202.96404 98.506076 202.87086 98.193576 202.74686 97.888576 C 202.36571 96.977286 201.72419 96.198693 200.90262 95.650294 C 200.62862 95.467294 200.33943 95.313868 200.03543 95.188868 C 199.73443 95.063868 199.41793 94.969618 199.09793 94.907618 C 198.77793 94.844618 198.44988 94.813868 198.12088 94.813868 z M 55.409885 100.74356 C 59.499877 100.74411 62.815586 104.05982 62.816138 108.14981 C 62.817238 112.24114 59.50121 115.55936 55.409885 115.56046 C 51.31635 115.56146 47.997412 112.24334 47.996308 108.14981 C 47.996308 104.05981 51.315885 100.74356 55.409885 100.74356 z M 341.09847 100.74356 C 345.15486 100.79216 348.4175 104.0946 348.4183 108.15128 C 348.4191 112.20795 345.15777 115.51024 341.1014 115.56046 C 336.97455 115.61156 333.60221 112.28137 333.6014 108.1542 C 333.60058 104.02704 336.9716 100.6941 341.09847 100.74356 z M 198.12381 110.47891 C 197.79668 110.47949 197.46963 110.51199 197.14822 110.57559 C 196.82822 110.64159 196.51572 110.74017 196.21072 110.86417 C 195.2996 111.24725 194.52231 111.89151 193.97683 112.71573 C 193.79692 112.98991 193.64386 113.28081 193.5198 113.58438 C 193.3948 113.88438 193.30495 114.20042 193.24295 114.52042 C 193.24171 114.52671 193.24123 114.53316 193.24002 114.53946 C 193.16146 114.89571 193.11955 115.25987 193.1199 115.62638 C 193.1229 116.28192 193.25347 116.93061 193.50369 117.53653 C 193.62841 117.84007 193.78453 118.12973 193.96951 118.40079 C 194.14863 118.67448 194.35634 118.92835 194.58914 119.15812 C 194.82133 119.38926 195.07546 119.59727 195.34793 119.77921 C 195.62093 119.95921 195.91072 120.11124 196.21072 120.23624 C 196.51507 120.36032 196.83043 120.45547 197.15262 120.52042 C 197.47287 120.58392 197.7988 120.61434 198.12527 120.61124 C 198.78153 120.61224 199.43124 120.48071 200.03543 120.22452 C 200.33943 120.09952 200.62422 119.9427 200.89822 119.7587 C 201.17222 119.5757 201.42262 119.36968 201.65262 119.13468 C 201.8834 118.90386 202.09003 118.65011 202.26932 118.37735 C 202.45222 118.10494 202.60543 117.81373 202.72635 117.5087 C 202.85816 117.18667 202.95462 116.85187 203.01639 116.51114 C 203.02206 116.48426 203.02874 116.45755 203.03397 116.43058 C 203.09697 116.11458 203.12879 115.79178 203.12479 115.46378 C 203.12479 115.13478 203.09304 114.80966 203.03104 114.48966 C 202.96404 114.16966 202.87086 113.85716 202.74686 113.55216 C 202.49235 112.94668 202.12328 112.39607 201.65994 111.93057 C 201.1947 111.46775 200.64263 111.10137 200.03543 110.85245 C 199.73443 110.72745 199.41793 110.63466 199.09793 110.57266 C 198.88413 110.53096 198.66786 110.50307 198.45047 110.48917 C 198.34147 110.48217 198.23285 110.47871 198.12381 110.47891 z M 330.9222 119.45987 C 332.43775 120.82134 334.22876 121.88117 336.20003 122.55069 L 336.20003 260.08932 C 330.1908 262.13106 325.86409 267.81786 325.86409 274.51657 C 325.86409 275.54423 325.96724 276.54741 326.16145 277.51804 L 210.87088 329.20068 C 209.08209 326.71337 206.56459 324.78701 203.62869 323.73681 L 203.62869 184.86664 C 208.77934 182.84431 212.53043 178.04182 213.03592 172.30706 L 330.9222 119.45987 z M 65.537819 119.50235 L 183.32888 172.30853 C 183.83488 178.04169 187.58395 182.84247 192.73464 184.86517 L 192.73464 323.9829 C 189.98882 325.10754 187.64487 327.00961 185.97585 329.41747 L 70.336649 277.57956 C 70.538795 276.59004 70.644266 275.56574 70.644266 274.51657 C 70.644266 267.7629 66.248794 262.03746 60.163305 260.03952 L 60.163305 122.6005 C 62.171689 121.94137 63.995014 120.8768 65.537819 119.50235 z M 198.12381 126.13956 C 197.79668 126.14014 197.46963 126.17264 197.14822 126.23624 C 196.82822 126.30224 196.51572 126.39982 196.21072 126.52482 C 195.91072 126.65382 195.62193 126.80664 195.34793 126.99064 C 195.07893 127.17464 194.82353 127.38466 194.59353 127.61466 C 194.43995 127.76927 194.29923 127.93379 194.16873 128.10538 C 194.05665 128.24079 193.95192 128.38166 193.85525 128.52872 C 193.49538 129.07721 193.24471 129.68997 193.11697 130.33341 C 193.05897 130.65741 193.02615 130.98246 193.02615 131.31046 C 193.03515 131.96656 193.16939 132.6149 193.42166 133.22062 C 193.8075 134.13072 194.455 134.90569 195.28201 135.44718 C 195.82968 135.80883 196.44435 136.05689 197.08963 136.17668 C 197.41063 136.23968 197.73428 136.2675 198.06228 136.2675 C 198.71417 136.2625 199.35892 136.13139 199.96072 135.88078 C 200.26022 135.75401 200.54672 135.5985 200.81619 135.41642 C 201.26363 135.11563 201.65749 134.7437 201.98367 134.31632 C 202.09807 134.17931 202.20562 134.03687 202.30447 133.88859 C 202.66 133.34305 202.90763 132.73441 203.03397 132.09562 C 203.09697 131.77562 203.12879 131.45136 203.12479 131.12736 C 203.12479 130.79936 203.09304 130.47031 203.03104 130.15031 C 202.96504 129.83031 202.87039 129.51681 202.74539 129.21281 C 202.61739 128.91181 202.46504 128.62255 202.28104 128.34855 C 202.09804 128.07555 201.88994 127.82622 201.65994 127.59122 C 201.1947 127.1284 200.64263 126.76202 200.03543 126.5131 C 199.73443 126.3881 199.41793 126.29485 199.09793 126.23185 C 198.88409 126.19065 198.66783 126.16322 198.45047 126.14982 C 198.34147 126.14282 198.23285 126.13936 198.12381 126.13956 z M 197.9993 126.29044 C 198.12284 126.29007 198.24581 126.29489 198.36844 126.30363 C 198.49107 126.31236 198.61341 126.32547 198.73465 126.34318 C 198.85187 126.3603 198.9678 126.38078 199.08328 126.40616 C 198.96822 126.38091 198.85144 126.36023 198.73465 126.34318 C 198.61341 126.32547 198.49107 126.31234 198.36844 126.30363 C 198.24581 126.29491 198.12284 126.29003 197.9993 126.29044 z M 199.11258 126.41349 C 199.22595 126.43913 199.33972 126.46789 199.45096 126.50138 C 199.55799 126.53361 199.66268 126.57039 199.76736 126.60978 C 199.66304 126.57054 199.55762 126.5335 199.45096 126.50138 C 199.33928 126.46775 199.22641 126.4392 199.11258 126.41349 z M 199.82596 126.63175 C 199.91127 126.66509 199.99591 126.7021 200.07937 126.74015 C 199.99551 126.7019 199.91169 126.66523 199.82596 126.63175 z M 200.18484 126.78995 C 200.27834 126.83526 200.37096 126.88227 200.4617 126.93351 C 200.56875 126.99395 200.67388 127.0583 200.77664 127.12687 C 200.67388 127.0583 200.56875 126.99396 200.4617 126.93351 C 200.37103 126.88231 200.27826 126.83524 200.18484 126.78995 z M 197.9993 141.95842 C 197.34328 141.96442 196.69459 142.0969 196.08914 142.34953 C 195.78514 142.47453 195.49935 142.63089 195.22635 142.81389 C 194.95235 142.99789 194.70195 143.20537 194.47195 143.43937 C 194.24117 143.67019 194.03453 143.92395 193.85525 144.1967 C 193.67542 144.47042 193.52237 144.76082 193.39822 145.06389 C 193.14786 145.6709 193.02136 146.32184 193.02615 146.97844 C 193.03515 147.63453 193.16939 148.28287 193.42166 148.8886 C 193.5499 149.19055 193.70688 149.47947 193.89041 149.75139 C 194.07532 150.0214 194.28629 150.2726 194.52029 150.50139 C 194.75338 150.73185 195.00851 150.93889 195.28201 151.11955 C 195.55497 151.29946 195.84553 151.45112 196.1492 151.57219 C 196.45328 151.69381 196.76815 151.78651 197.08963 151.84905 C 197.4103 151.90915 197.73604 151.93807 198.06228 151.93547 L 198.06375 151.93547 C 198.71563 151.93047 199.36038 151.79937 199.96219 151.54875 C 200.56212 151.29426 201.10689 150.92561 201.56619 150.4633 C 201.79619 150.2323 201.99996 149.98191 202.17996 149.70891 C 202.35996 149.43491 202.51199 149.15004 202.63699 148.84904 C 202.8812 148.245 203.00558 147.59922 203.0032 146.94768 C 203.0032 146.61968 202.97252 146.29563 202.90652 145.97063 C 202.84352 145.65063 202.75088 145.33752 202.62088 145.03752 C 202.49588 144.73252 202.34392 144.44333 202.16092 144.17033 C 201.79327 143.62623 201.32308 143.15902 200.77664 142.79484 C 199.95452 142.2463 198.98762 141.95511 197.9993 141.95842 z M 198.18387 163.75237 C 202.18904 163.75319 205.43499 167.00111 205.43338 171.00628 C 205.43311 175.00997 202.18755 178.25553 198.18387 178.25579 C 194.17587 178.25579 190.92556 175.00928 190.92556 171.00628 C 190.92616 166.99859 194.17618 163.75055 198.18387 163.75237 z M 216.08426 209.68989 C 214.45195 209.68389 212.91093 210.47634 211.96805 211.82563 C 211.78105 212.09463 211.62398 212.3811 211.49198 212.6811 C 211.35898 212.9781 211.25729 213.28688 211.18729 213.60688 C 211.04683 214.24232 211.03093 214.89897 211.14041 215.54048 C 211.19831 215.86096 211.28612 216.17532 211.40262 216.47944 C 211.52056 216.78251 211.66671 217.07383 211.83914 217.34956 C 212.01511 217.62343 212.2167 217.87995 212.4412 218.11567 C 212.66514 218.35116 212.91251 218.56319 213.17948 218.74849 C 213.44454 218.93512 213.72712 219.09555 214.02323 219.22749 C 214.62359 219.49364 215.26969 219.64137 215.92606 219.66255 C 216.25406 219.67055 216.58311 219.64624 216.90311 219.59224 C 217.55081 219.48478 218.16983 219.24654 218.72245 218.89204 C 218.99926 218.7176 219.25832 218.51644 219.49589 218.29145 C 219.97464 217.84161 220.35734 217.29946 220.62089 216.6977 C 220.75389 216.4007 220.85897 216.08753 220.92997 215.76753 C 220.99997 215.44753 221.04209 215.12287 221.05009 214.79487 C 221.06619 214.13982 220.95219 213.48808 220.71464 212.87739 C 220.59764 212.56839 220.44972 212.27941 220.27372 212.00141 C 219.74111 211.16861 218.97479 210.51133 218.07059 210.11176 C 217.77359 209.97876 217.46042 209.87561 217.14042 209.80561 C 216.90062 209.75311 216.65729 209.71831 216.41239 209.70161 C 216.30291 209.69361 216.19308 209.69029 216.08426 209.68989 z M 178.53298 209.9477 C 178.09856 209.9387 177.66484 209.9864 177.24245 210.08833 C 176.92545 210.16633 176.62099 210.27113 176.32399 210.40913 C 175.72887 210.68643 175.19311 211.07644 174.74636 211.55756 C 174.52336 211.79556 174.32802 212.05686 174.15602 212.33686 C 173.98402 212.61486 173.84422 212.90723 173.73122 213.21723 C 173.50699 213.83335 173.40306 214.48676 173.42507 215.14204 C 173.43967 215.46992 173.48577 215.79564 173.56276 216.1147 C 173.71921 216.75248 173.99778 217.35391 174.38308 217.88569 C 174.57833 218.14768 174.79647 218.3918 175.03493 218.61518 C 175.27686 218.8357 175.53984 219.03195 175.82009 219.20112 C 176.09973 219.37202 176.39561 219.5148 176.70339 219.62739 C 177.32005 219.84865 177.97355 219.94911 178.62819 219.92329 C 178.95619 219.90829 179.28085 219.86069 179.60085 219.78267 C 179.91801 219.70417 180.22701 219.59579 180.5237 219.45894 C 180.82045 219.31839 181.103 219.14964 181.36745 218.95503 C 181.62845 218.76303 181.87502 218.54471 182.09402 218.30171 C 182.31574 218.06078 182.51208 217.79767 182.67995 217.51655 C 182.85195 217.23555 182.99183 216.93979 183.10183 216.63179 C 183.21483 216.32279 183.29353 216.0061 183.34353 215.6811 C 183.48742 214.70341 183.34053 213.70498 182.92165 212.81001 C 182.78165 212.51701 182.61707 212.23558 182.42507 211.97358 C 182.23407 211.71258 182.01561 211.47048 181.77761 211.24848 C 181.29383 210.81183 180.73166 210.47085 180.12087 210.2436 C 179.81287 210.1336 179.50044 210.0519 179.18044 210.0019 C 178.966 209.97 178.74974 209.9519 178.53298 209.9477 z M 230.22294 216.09272 C 229.97821 216.09972 229.73573 216.12616 229.49198 216.17036 C 229.17002 216.22526 228.85478 216.31412 228.55155 216.4355 C 227.93752 216.67013 227.37778 217.02751 226.90653 217.48579 C 226.4307 217.93733 226.0519 218.48111 225.79325 219.08394 C 225.66125 219.38394 225.55856 219.68972 225.48856 220.00972 C 225.34742 220.64554 225.33097 221.3027 225.44022 221.94478 C 225.55458 222.58691 225.79237 223.20078 226.14042 223.75239 C 226.49059 224.30252 226.9461 224.77795 227.48075 225.15132 C 228.01413 225.52873 228.6163 225.79797 229.25321 225.9438 C 229.57282 226.015 229.89855 226.05522 230.22587 226.06392 C 230.55305 226.07192 230.88024 226.04821 231.20292 225.99361 C 231.52618 225.93951 231.84319 225.85314 232.14921 225.73579 C 232.45721 225.61879 232.74572 225.47027 233.02372 225.29927 C 233.85892 224.77021 234.51933 224.00635 234.92216 223.10347 C 235.05421 222.80433 235.1577 222.49337 235.23124 222.17476 C 235.30224 221.85376 235.33936 221.52864 235.35136 221.20064 C 235.35936 220.87264 235.33212 220.54358 235.27812 220.22358 C 235.10921 219.24916 234.65321 218.34737 233.96855 217.63374 C 233.74255 217.39574 233.49587 217.1816 233.22587 216.9936 C 232.95587 216.8066 232.67187 216.64613 232.37187 216.51313 C 232.07487 216.38113 231.76169 216.27845 231.44169 216.20845 C 231.12169 216.13745 230.79703 216.09972 230.46903 216.09272 C 230.38703 216.09072 230.30452 216.09072 230.22294 216.09272 z M 164.157 216.49263 C 164.09568 216.49313 164.03375 216.49548 163.97243 216.49848 C 163.64743 216.51348 163.32409 216.55968 163.00709 216.63472 C 162.37276 216.79328 161.77461 217.07172 161.24489 217.45503 C 160.97989 217.64603 160.734 217.86049 160.511 218.10249 C 160.06599 218.58465 159.72096 219.15024 159.49586 219.76655 C 159.27148 220.3831 159.16803 221.03712 159.19117 221.69282 C 159.20557 222.01928 159.25167 222.34356 159.32887 222.66108 C 159.48549 223.29836 159.76406 223.89927 160.14918 224.43062 C 160.73061 225.2303 161.53828 225.83745 162.46803 226.17378 C 162.77559 226.28679 163.09353 226.36922 163.41725 226.41988 C 163.74059 226.46778 164.06777 226.48438 164.3943 226.46968 C 165.05042 226.44368 165.69458 226.28571 166.28835 226.00532 C 166.58582 225.86731 166.86852 225.69946 167.1321 225.50435 C 167.65967 225.11451 168.10601 224.62537 168.44606 224.06441 C 168.78566 223.5037 169.01116 222.88144 169.10964 222.23335 C 169.20464 221.58349 169.17269 220.92139 169.01589 220.28364 C 168.93789 219.96764 168.82776 219.65779 168.68776 219.36079 C 168.54676 219.06379 168.38264 218.78583 168.19264 218.52583 C 167.8102 217.99692 167.32368 217.55178 166.76296 217.21772 C 166.03051 216.768 165.19499 216.52019 164.3401 216.49556 C 164.27904 216.49356 164.21832 216.49213 164.157 216.49263 z M 244.50517 222.57612 C 243.93212 222.59012 243.36515 222.70096 242.82793 222.90425 C 242.51893 223.02125 242.22902 223.16977 241.94902 223.34077 C 241.39535 223.69345 240.91531 224.15012 240.53544 224.6855 C 240.1596 225.22263 239.89146 225.82755 239.74589 226.46675 C 239.67589 226.78675 239.63231 227.11141 239.62431 227.43941 C 239.61531 227.76679 239.64082 228.09418 239.69902 228.41646 C 239.86669 229.39038 240.32113 230.29212 241.00419 231.0063 C 241.23194 231.24333 241.48213 231.45771 241.75127 231.64644 C 242.28639 232.02395 242.89146 232.29089 243.53105 232.4316 C 243.85075 232.5018 244.17648 232.54108 244.50371 232.54878 C 244.83171 232.55578 245.16076 232.52908 245.48076 232.47408 C 245.80387 232.41518 246.12071 232.32591 246.42705 232.20748 C 247.0359 231.96672 247.59248 231.61058 248.06621 231.15865 C 248.53843 230.70137 248.91793 230.15724 249.18389 229.55611 C 249.31277 229.2587 249.41475 228.95034 249.48857 228.63472 C 249.55877 228.3165 249.59802 227.99224 249.60576 227.66646 C 249.61376 227.34246 249.59105 227.0182 249.53105 226.6982 C 249.42176 226.05489 249.18521 225.43986 248.83525 224.88911 C 248.4847 224.33888 248.02926 223.86304 247.49492 223.48872 C 247.22992 223.30172 246.94824 223.14272 246.64824 223.00972 C 246.35124 222.87772 246.03806 222.77064 245.71806 222.70064 C 245.40206 222.62564 245.07927 222.58412 244.75127 222.57612 C 244.66927 222.57412 244.58704 222.57412 244.50517 222.57612 z M 149.94508 222.95845 C 149.86328 222.95772 149.78087 222.95984 149.69898 222.96284 C 149.36998 222.97784 149.04633 223.02544 148.72633 223.10347 C 148.41033 223.18147 148.10194 223.2912 147.80494 223.4272 C 147.50794 223.5682 147.22719 223.73171 146.96119 223.92671 C 146.69519 224.12271 146.45363 224.34143 146.23463 224.58443 C 146.01163 224.82643 145.81669 225.08812 145.64869 225.36812 C 145.13637 226.21382 144.88752 227.19293 144.93385 228.18062 C 144.94895 228.50797 144.99755 228.8329 145.07886 229.15035 C 145.15716 229.46767 145.2671 229.77634 145.40699 230.07173 C 145.54344 230.36728 145.70828 230.64888 145.89918 230.91255 C 146.09237 231.17397 146.3107 231.41585 146.55103 231.63472 C 146.78939 231.85636 147.05006 232.05272 147.32887 232.22066 C 147.60645 232.38848 147.89925 232.52973 148.20338 232.64253 C 148.51013 232.75226 148.82644 232.83318 149.1482 232.88423 C 150.11825 233.03066 151.10995 232.88923 152.00025 232.47701 C 152.59696 232.20239 153.13321 231.81203 153.57789 231.32857 C 153.80147 231.08951 154.00024 230.82841 154.17115 230.54927 C 154.68617 229.7069 154.93954 228.73061 154.89918 227.74409 C 154.88718 227.41609 154.83948 227.09144 154.76149 226.77144 C 154.60998 226.13328 154.33095 225.53236 153.94117 225.00484 C 153.74917 224.73984 153.53085 224.49434 153.28785 224.27534 C 152.80625 223.82997 152.24117 223.48445 151.62525 223.25874 C 151.08517 223.06536 150.51755 222.96358 149.94508 222.95845 z M 258.61895 228.64204 C 256.98515 228.64179 255.45429 229.43976 254.51885 230.77925 C 254.33085 231.04925 254.17224 231.33472 254.04424 231.63472 L 254.04277 231.63472 C 253.91077 231.93172 253.80809 232.24011 253.73809 232.55611 C 253.5975 233.19302 253.58161 233.85113 253.69121 234.4941 C 253.80464 235.13535 254.04198 235.74834 254.38994 236.29879 C 254.56401 236.57354 254.76574 236.82976 254.99199 237.06343 C 255.21481 237.3014 255.4623 237.515 255.73027 237.70064 C 255.99448 237.88781 256.27721 238.04734 256.57402 238.17672 C 257.17279 238.44762 257.81986 238.59556 258.47686 238.61177 C 258.80399 238.62257 259.13136 238.59999 259.45391 238.54439 C 260.75979 238.31859 261.92288 237.58428 262.68829 236.5024 C 262.87929 236.2364 263.03868 235.94986 263.17168 235.64986 C 263.30382 235.35025 263.40731 235.0388 263.48077 234.71968 C 263.55177 234.39968 263.58888 234.07649 263.60088 233.74849 C 263.60888 233.42049 263.58164 233.09544 263.52764 232.77144 C 263.35873 231.79702 262.90273 230.89522 262.21807 230.1816 C 261.99207 229.9436 261.74686 229.73139 261.47686 229.54439 C 261.20686 229.35239 260.92139 229.19252 260.62139 229.05952 C 259.98981 228.78386 259.30807 228.64173 258.61895 228.64204 z M 136.17408 229.49898 C 136.09278 229.49822 136.01087 229.49865 135.92945 229.50191 C 135.60545 229.51691 135.28551 229.56451 134.96851 229.64253 C 132.65263 230.20025 131.0543 232.31765 131.15259 234.69771 C 131.16529 235.02577 131.21139 235.35168 131.29029 235.67037 C 131.44153 236.3079 131.72006 236.9083 132.10913 237.4355 C 132.30048 237.70154 132.51948 237.94656 132.76245 238.16646 C 133.00352 238.38741 133.26494 238.58506 133.54322 238.75679 C 133.82286 238.92635 134.11816 239.06861 134.42505 239.1816 C 134.73372 239.29195 135.05199 239.37336 135.37574 239.42476 C 135.69974 239.47476 136.02772 239.49057 136.35572 239.47457 C 137.0123 239.44727 137.65678 239.28888 138.25123 239.00875 C 138.54769 238.87202 138.82901 238.7046 139.09058 238.50924 C 139.35431 238.31612 139.59862 238.09781 139.82007 237.85738 C 140.03807 237.61138 140.23401 237.34922 140.40601 237.07222 C 140.57401 236.79122 140.71496 236.49399 140.82496 236.18599 C 140.93696 235.87599 141.01966 235.56077 141.06666 235.23677 C 141.11766 234.91277 141.13293 234.58472 141.11793 234.25972 C 141.10193 233.93172 141.05393 233.60707 140.97291 233.28707 C 140.89291 232.97007 140.78532 232.66268 140.64332 232.36568 C 140.2316 231.47479 139.56279 230.72742 138.72291 230.21968 C 138.44491 230.04868 138.153 229.90827 137.844 229.79927 C 137.30764 229.60514 136.74329 229.50427 136.17408 229.49898 z M 272.9422 235.04048 C 272.82541 235.03972 272.70887 235.04344 272.5921 235.05074 C 271.41474 235.12564 270.30178 235.61438 269.45001 236.43062 C 269.21501 236.66162 268.9998 236.90769 268.8128 237.17769 C 268.6258 237.44769 268.46826 237.73316 268.33526 238.03316 C 267.94006 238.93119 267.81927 239.92603 267.98809 240.89254 C 268.09558 241.53566 268.33389 242.14989 268.68829 242.69723 C 268.8604 242.97399 269.06068 243.2322 269.28594 243.46773 C 269.51077 243.70229 269.75804 243.91424 270.02423 244.10055 C 270.28929 244.28718 270.57187 244.44761 270.86798 244.57955 C 271.46788 244.84552 272.11347 244.99324 272.76934 245.01461 C 273.09653 245.02261 273.42371 244.9989 273.74639 244.9443 C 274.3946 244.83703 275.01414 244.59879 275.5672 244.2441 C 276.40297 243.71805 277.06331 242.95522 277.46417 242.05269 C 277.72948 241.45071 277.87573 240.80305 277.89483 240.14547 C 277.91973 239.15807 277.64881 238.18579 277.117 237.35347 C 276.58462 236.52013 275.81827 235.86232 274.91388 235.46236 C 274.61688 235.32936 274.30516 235.22767 273.98516 235.15767 C 273.64237 235.08217 273.29255 235.04278 272.9422 235.04048 z M 121.94751 236.04537 C 121.86621 236.045 121.78426 236.04646 121.70288 236.04976 C 121.37888 236.06576 121.05794 236.11056 120.74194 236.18453 C 120.42494 236.26253 120.11748 236.37272 119.82348 236.50972 C 117.9877 237.3551 116.84349 239.2247 116.92602 241.2441 C 116.93802 241.57068 116.98362 241.89516 117.06225 242.21236 C 117.21187 242.85207 117.49106 243.45432 117.88257 243.98189 C 118.26935 244.51168 118.75664 244.96015 119.31665 245.30172 C 119.59641 245.47119 119.89229 245.61251 120.19995 245.72359 C 120.50703 245.83652 120.82448 245.91894 121.1477 245.96969 C 121.79699 246.06769 122.45911 246.03883 123.09741 245.88473 C 123.41741 245.80673 123.72326 245.6976 124.02026 245.5566 C 124.32126 245.4166 124.59801 245.25162 124.86401 245.05562 C 125.66138 244.47234 126.26512 243.66294 126.59692 242.73238 C 126.82111 242.11449 126.92069 241.4583 126.88989 240.80172 C 126.87389 240.47372 126.82839 240.15345 126.74634 239.83345 C 126.66734 239.51645 126.55921 239.20907 126.41821 238.91207 C 126.28221 238.61507 126.11363 238.33764 125.92163 238.07564 C 125.73063 237.80964 125.51217 237.56908 125.27417 237.34908 C 125.03217 237.13108 124.77334 236.93554 124.49634 236.76754 C 124.21434 236.59654 123.92597 236.45466 123.61597 236.34566 C 123.08075 236.14892 122.51649 236.04791 121.94751 236.04537 z M 287.30792 241.44332 C 286.31952 241.41872 285.34661 241.69228 284.51593 242.22848 C 284.23972 242.40353 283.98205 242.60623 283.74689 242.83346 C 283.27482 243.2903 282.89533 243.83392 282.62921 244.43453 C 282.50021 244.73153 282.39892 245.04138 282.32892 245.35738 C 282.25392 245.67738 282.21387 245.99872 282.20587 246.32272 C 282.19987 246.64863 282.22534 246.97437 282.28204 247.29537 C 282.50855 248.59161 283.24037 249.74493 284.31671 250.50192 C 284.58243 250.68915 284.86663 250.84867 285.16486 250.97799 C 285.76328 251.2482 286.40982 251.39564 287.06622 251.41158 C 287.3933 251.42288 287.72068 251.40077 288.04328 251.34567 C 289.01695 251.17741 289.91908 250.72482 290.63605 250.04488 C 290.87405 249.81788 291.08619 249.57221 291.27619 249.30221 C 291.65683 248.76762 291.92586 248.16181 292.0672 247.52096 C 292.1402 247.20216 292.18046 246.87674 292.18732 246.54977 C 292.19532 246.22177 292.17101 245.89625 292.11701 245.57125 C 292.00299 244.92535 291.76309 244.30818 291.41095 243.75484 C 291.06171 243.19829 290.60265 242.7188 290.06183 242.34566 C 289.79683 242.15466 289.51222 241.99419 289.21222 241.86519 C 288.91122 241.73219 288.60204 241.63051 288.28204 241.56051 C 287.96104 241.48651 287.63592 241.44732 287.30792 241.44332 z M 107.79858 242.59322 C 107.36516 242.58322 106.93232 242.63032 106.51098 242.73238 C 106.19498 242.81038 105.89099 242.92011 105.59399 243.05611 C 104.38964 243.60867 103.45613 244.61971 103.00121 245.86422 C 102.88721 246.17422 102.80472 246.48944 102.75072 246.81344 C 102.60146 247.78955 102.74272 248.78801 103.15649 249.68453 C 103.2929 249.9824 103.45928 250.2656 103.65307 250.52975 C 104.04134 251.05927 104.52952 251.50764 105.09008 251.84957 C 105.36898 252.0197 105.66444 252.16105 105.97192 252.27145 C 106.90068 252.60763 107.90782 252.66316 108.86791 252.43112 C 109.18791 252.34912 109.49669 252.24299 109.79369 252.10299 C 110.38702 251.82303 110.92033 251.43051 111.36401 250.94723 C 111.58573 250.7063 111.78208 250.44319 111.94995 250.16207 C 112.11737 249.88142 112.25812 249.58569 112.37036 249.27877 C 112.47936 248.96977 112.56213 248.65455 112.60913 248.32955 C 112.65913 248.00655 112.67493 247.67757 112.65893 247.34957 C 112.64393 247.02157 112.59773 246.70131 112.51977 246.38131 C 112.43777 246.06431 112.32725 245.75546 112.18725 245.45846 C 112.05025 245.16146 111.88606 244.8841 111.69506 244.6191 C 111.49906 244.3571 111.28621 244.11447 111.04321 243.89547 C 110.56518 243.45372 110.00328 243.1125 109.39086 242.89205 C 109.08186 242.77905 108.77004 242.69735 108.44604 242.65035 C 108.23169 242.61725 108.01541 242.59812 107.79858 242.59322 z M 301.6092 247.84469 C 301.2822 247.83769 300.95422 247.8644 300.62922 247.9194 C 300.30922 247.9774 299.99186 248.068 299.68586 248.186 C 299.07689 248.42719 298.5203 248.78383 298.0467 249.23629 C 297.57463 249.69313 297.19514 250.23676 296.92902 250.83737 C 296.80002 251.13337 296.69873 251.44315 296.62873 251.76315 C 296.55473 252.08015 296.51515 252.40048 296.50715 252.72848 C 296.49525 253.37954 296.60963 254.02674 296.84406 254.63424 C 297.07687 255.24284 297.42842 255.79904 297.87824 256.27047 C 298.32998 256.74078 298.86877 257.11888 299.46467 257.38375 C 300.06548 257.65009 300.7121 257.79782 301.36896 257.81881 C 303.03599 257.86061 304.61442 257.06974 305.57893 255.70944 C 305.76593 255.43944 305.92933 255.15397 306.06233 254.85397 C 306.19533 254.55597 306.29701 254.24379 306.36701 253.92379 C 306.44061 253.60457 306.48135 253.27865 306.48859 252.95114 C 306.49559 252.62314 306.47389 252.29908 306.41389 251.97408 C 306.35989 251.65408 306.27315 251.33865 306.15315 251.03365 C 306.03615 250.72465 305.88676 250.43468 305.71076 250.15768 C 305.53576 249.88068 305.33618 249.62324 305.11018 249.38424 C 304.88318 249.15024 304.63311 248.9355 304.36311 248.7485 C 303.82755 248.37081 303.22195 248.10387 302.58186 247.96334 C 302.26186 247.89234 301.9382 247.85269 301.6092 247.84469 z M 93.564685 249.14254 C 93.131214 249.13354 92.698414 249.18094 92.277087 249.28317 C 91.960087 249.36117 91.657094 249.4655 91.360094 249.6025 C 91.063094 249.7435 90.780879 249.90808 90.514879 250.09908 C 90.248879 250.29108 90.002992 250.5094 89.780992 250.7524 C 89.557992 250.9904 89.364125 251.25217 89.192125 251.53317 C 89.021376 251.81084 88.878587 252.10475 88.765855 252.41061 C 88.652855 252.72061 88.570366 253.03729 88.515366 253.36129 C 88.466116 253.68548 88.447967 254.01363 88.461167 254.34127 C 88.475597 254.66763 88.521217 254.99186 88.597398 255.30953 C 88.675398 255.63053 88.781128 255.93678 88.921128 256.23678 C 89.05762 256.53414 89.224003 256.81685 89.417711 257.08053 C 89.612298 257.3435 89.831022 257.58773 90.071031 257.81002 C 90.312963 258.03054 90.575941 258.22679 90.856188 258.39596 C 91.134959 258.56751 91.430418 258.71033 91.738024 258.82223 C 92.355051 259.04417 93.009064 259.14513 93.664294 259.1196 C 94.319735 259.0877 94.962846 258.92948 95.558338 258.65377 C 95.85418 258.51325 96.136599 258.34606 96.402088 258.15426 C 97.470793 257.3691 98.18123 256.18926 98.375234 254.87741 C 98.472384 254.22885 98.442038 253.56756 98.285878 252.93063 C 98.203878 252.61063 98.093358 252.30231 97.953358 252.00631 C 97.816358 251.71331 97.653171 251.43088 97.461171 251.16988 C 97.266171 250.90688 97.04985 250.66672 96.80785 250.44772 C 96.56985 250.22472 96.311483 250.02978 96.031483 249.86178 C 95.753483 249.69378 95.460971 249.55144 95.156971 249.43844 C 94.847971 249.32944 94.536146 249.24674 94.212146 249.19674 C 93.997722 249.16474 93.781449 249.14664 93.564685 249.14254 z M 315.64094 254.32955 C 315.39625 254.33455 315.15298 254.35567 314.90998 254.39987 C 314.58734 254.45457 314.27087 254.54091 313.96516 254.65768 C 313.04293 255.0125 312.24631 255.63227 311.67561 256.43893 C 311.29575 256.97414 311.02634 257.57968 310.88313 258.22018 C 310.7426 258.86106 310.72671 259.52299 310.83625 260.16989 C 310.89425 260.49226 310.98205 260.80855 311.09846 261.11471 C 311.21738 261.41927 311.36451 261.71205 311.53791 261.98923 C 311.71532 262.2646 311.91837 262.52259 312.14436 262.75973 C 312.36966 262.99635 312.6185 263.20937 312.88703 263.39548 C 313.15409 263.58469 313.43916 263.7471 313.73811 263.88034 C 314.03953 264.00927 314.35179 264.11123 314.67122 264.18503 C 314.99091 264.25523 315.31664 264.29451 315.64387 264.30221 C 315.97129 264.30721 316.29847 264.28158 316.62092 264.22458 C 316.94339 264.16978 317.25912 264.08091 317.56282 263.95944 C 317.86805 263.84189 318.16056 263.69367 318.43587 263.51706 C 318.71189 263.3411 318.96996 263.13847 319.20637 262.91208 C 319.44137 262.68108 319.65658 262.43647 319.84358 262.16647 C 320.03058 261.89647 320.18812 261.61054 320.32112 261.30954 C 320.45359 261.01213 320.5552 260.70191 320.62434 260.38376 C 320.76461 259.74879 320.78051 259.09265 320.67122 258.45163 C 320.61722 258.12763 320.52701 257.81413 320.40901 257.51413 C 320.17637 256.90501 319.82482 256.34829 319.37483 255.87643 C 319.14883 255.64143 318.90255 255.42769 318.63655 255.24069 C 318.36755 255.05269 318.0854 254.89661 317.7884 254.76461 C 317.19009 254.4939 316.54354 254.34596 315.88704 254.32955 C 315.80504 254.32755 315.7225 254.32755 315.64094 254.32955 z M 79.210675 255.60543 C 79.128725 255.60507 79.046582 255.60729 78.964582 255.61129 C 78.309699 255.63619 77.666744 255.79414 77.074932 256.07565 C 76.773932 256.21265 76.496182 256.38163 76.231182 256.57663 C 75.965182 256.77163 75.723225 256.98648 75.500225 257.22848 C 74.378462 258.46292 73.944618 260.17468 74.342998 261.7944 C 74.424338 262.11223 74.534157 262.42207 74.671123 262.72018 C 74.81076 263.01357 74.976982 263.29355 75.167705 263.55661 C 75.362239 263.8174 75.579389 264.06053 75.816631 264.28317 C 76.057094 264.50226 76.318619 264.69706 76.597393 264.86471 C 76.873334 265.03555 77.166444 265.17695 77.471905 265.28659 C 78.085039 265.50786 78.735091 265.60883 79.386457 265.58395 C 79.711884 265.56985 80.035178 265.52425 80.351789 265.44772 C 80.667463 265.36842 80.974971 265.25949 81.270247 265.12253 C 81.56739 264.9862 81.850063 264.82033 82.113997 264.62741 C 82.37963 264.43609 82.625481 264.2187 82.847884 263.97848 C 83.293646 263.49608 83.640077 262.93064 83.867415 262.31442 C 83.980258 262.00681 84.062683 261.68889 84.113509 261.3652 C 84.262977 260.38937 84.122909 259.39113 83.710677 258.49411 C 83.43298 257.89892 83.04132 257.36394 82.557845 256.9194 C 82.315845 256.6964 82.054083 256.50253 81.777083 256.33053 C 81.495083 256.16253 81.204246 256.02166 80.895246 255.90866 C 80.586246 255.79566 80.270027 255.71356 79.946027 255.66256 C 79.702277 255.62726 79.456535 255.60643 79.210675 255.60543 z M 55.409885 267.13083 C 59.501562 267.13179 62.8176 270.4498 62.816138 274.54148 C 62.815725 278.63167 59.500075 281.94732 55.409885 281.94773 C 51.315885 281.94773 47.996308 278.63148 47.996308 274.54148 C 47.996308 270.44748 51.315885 267.13083 55.409885 267.13083 z M 341.1014 267.13083 A 7.408 7.408 0 0 1 348.50765 274.54148 A 7.407 7.407 0 0 1 341.1014 281.94773 A 7.4084501 7.4084501 0 1 1 341.1014 267.13083 z M 198.50027 330.70507 C 202.59046 330.70548 205.90611 334.02114 205.90652 338.11132 C 205.90718 342.20243 202.59138 345.51954 198.50027 345.52051 C 194.40814 345.52031 191.09063 342.20346 191.08962 338.11132 C 191.09162 334.02011 194.40905 330.70471 198.50027 330.70507 z " />
</svg>
